<?xml version="1.0" encoding="UTF-8" standalone="no"?><!DOCTYPE svg PUBLIC "-//W3C//DTD SVG 1.1//EN" "http://www.w3.org/Graphics/SVG/1.1/DTD/svg11.dtd"><svg width="100%" height="100%" viewBox="0 0 256 256" version="1.1" xmlns="http://www.w3.org/2000/svg" xmlns:xlink="http://www.w3.org/1999/xlink" xml:space="preserve" xmlns:serif="http://www.serif.com/" style="fill-rule:evenodd;clip-rule:evenodd;stroke-linejoin:round;stroke-miterlimit:1.41421;"><g id="Particular_Software_dark"><path d="M211.489,44.866c-21.253,-19.248 -45.313,-28.07 -56.54,-30.476c-3.609,-0.802 -6.416,-1.203 -8.02,-1.604c-2.005,-0.401 -3.609,-0.401 -4.01,0c0.802,0.802 3.609,2.406 7.218,4.01c7.218,3.609 24.059,12.03 37.292,25.263c9.223,9.222 17.644,22.054 20.05,33.683c0.802,2.807 0.802,5.614 0.802,8.02c-0.401,12.03 -12.431,19.247 -31.679,20.049c-5.614,0.401 -8.421,4.411 -8.421,10.827c1.203,14.436 13.634,36.09 31.679,44.109c6.817,2.807 13.233,3.609 19.648,2.807c16.842,-2.406 30.075,-18.445 30.476,-40.099c0,-3.208 -0.401,-6.416 -0.802,-10.025c-3.609,-23.257 -20.451,-50.525 -37.693,-66.564Z" style="fill:#00729c;fill-rule:nonzero;"/><path d="M15.002,159.148c2.807,-0.401 4.812,-6.416 7.619,-15.638c3.609,-12.431 8.822,-37.694 26.065,-59.347c12.029,-15.238 32.881,-29.273 56.54,-32.08c0.401,0 0.802,0 1.203,0c17.643,-1.203 39.297,6.817 55.738,21.253c3.608,3.208 7.618,4.812 11.628,5.213c9.223,0.401 16.441,-6.416 15.238,-16.04c-0.401,-2.406 -1.604,-5.213 -3.609,-8.02c-12.431,-18.445 -51.327,-36.49 -84.208,-34.485c-0.401,0 -0.802,0 -1.203,0c-36.892,2.807 -71.377,27.267 -86.214,50.525c-7.218,11.629 -11.227,23.258 -12.831,34.084c-2.406,16.842 0,31.679 3.609,40.1c4.009,10.826 7.618,15.237 10.425,14.435Z" style="fill:#00729c;fill-rule:nonzero;"/><path d="M81.567,198.847c34.886,42.104 91.426,51.728 123.506,40.099c0.401,0 1.203,-0.401 1.604,-0.401c27.668,-10.827 42.505,-34.886 46.515,-47.317c1.604,-5.213 2.406,-8.822 2.807,-11.228c0,-3.208 -1.203,-4.01 -3.609,-3.208c-0.802,0.401 -2.005,0.401 -2.807,1.203c-3.609,1.604 -10.025,5.614 -18.847,8.02c-4.812,1.203 -10.426,2.005 -16.44,1.604c-16.842,-0.802 -40.501,-10.025 -58.545,-31.278c-10.426,-12.029 -15.639,-28.871 -15.639,-45.312c-0.401,-6.817 0.401,-13.633 2.406,-20.049c0,-0.401 0.401,-1.203 0.401,-1.604c-1.604,-10.025 -20.852,-18.446 -39.297,-16.441c-8.02,0.802 -16.441,3.609 -23.258,8.822c-13.233,10.025 -20.852,26.866 -22.456,46.515c-1.603,22.857 6.416,49.723 23.659,70.575Z" style="fill:#00729c;fill-rule:nonzero;"/></g></svg>